<?xml version="1.0" encoding="utf-8"?>
<!-- Generator: Adobe Illustrator 17.0.0, SVG Export Plug-In . SVG Version: 6.00 Build 0)  -->
<!DOCTYPE svg PUBLIC "-//W3C//DTD SVG 1.1//EN" "http://www.w3.org/Graphics/SVG/1.1/DTD/svg11.dtd">
<svg version="1.1" id="Layer_1" xmlns="http://www.w3.org/2000/svg" xmlns:xlink="http://www.w3.org/1999/xlink" x="0px" y="0px"
	 width="950px" height="1980.094px" viewBox="0 0 950 1980.094" enable-background="new 0 0 950 1980.094" xml:space="preserve">
<path fill="none" stroke="#DCDCDC" stroke-width="2" stroke-miterlimit="10" d="M-522.591,27.76"/>
<path fill="none" stroke="#B6B6B6" stroke-width="2" stroke-miterlimit="10" d="M720.198,83.218
	c20.701,0,37.482,16.781,37.482,37.482c0,3.569-0.499,7.022-1.431,10.292l-0.006-0.039l-3.143,10.685l-3.521,12l-24.33,82.715
	l-0.395,0.651c-3.526,1.788-7.489,3.709-7.489,3.709"/>
<path fill="none" stroke="#B6B6B6" stroke-width="2" stroke-miterlimit="10" d="M475.958,45.537
	c0,20.701,16.781,37.482,37.482,37.482l106.758,0.199"/>
<line fill="none" stroke="#B6B6B6" stroke-width="2" stroke-miterlimit="10" x1="475.937" y1="46" x2="475.937" y2="0"/>
<path fill="none" stroke="#DCDCDC" stroke-width="2" stroke-miterlimit="10" d="M-576.94,27.058"/>
<path fill="none" stroke="#B6B6B6" stroke-width="2" stroke-miterlimit="10" d="M32.937,1358H11.621
	c-9.905,0-9.684,9.384-9.684,9.384v48.94l0.327,27.292c0,20.701,16.886,37.384,37.587,37.384h670.086"/>
<path fill="none" stroke="#B6B6B6" stroke-width="2" stroke-miterlimit="10" d="M821.651,216.079h109.806
	c3.453,0,6.252,2.799,6.252,6.252v155.606c0,3.453-2.799,6.252-6.252,6.252H821.349c-3.453,0-6.252-2.799-6.252-6.252V236.514
	c0,0,0-2.699,2.699-2.699h6.169c0,0,2.699-0.129,2.699,2.699v11.567"/>
<path fill="none" stroke="#B6B6B6" stroke-width="2" stroke-miterlimit="10" d="M926.142,357.584v5.745
	c0,2.812-1.894,5.436-4.706,5.436h-89.68c-2.812,0-5.092-2.624-5.092-5.436V248.081"/>
<g>
	<path fill="none" stroke="#B6B6B6" stroke-width="2" stroke-miterlimit="10" d="M925.937,358H838.99c-2.75,0-5.053-2.28-5.053-5.03
		v-0.796c0-2.75,2.303-5.174,5.053-5.174h81.766c2.75,0,5.18-2.076,5.18-4.826v-0.025c0-2.75-2.43-5.149-5.18-5.149H838.99
		c-2.75,0-5.053-2.101-5.053-4.851v-0.796c0-2.75,2.303-5.353,5.053-5.353h81.766c2.75,0,5.18-1.897,5.18-4.647v-0.025
		c0-2.75-2.43-5.328-5.18-5.328H838.99c-2.75,0-5.053-1.922-5.053-4.672v-0.796c0-2.75,2.303-4.532,5.053-4.532h81.766
		c2.75,0,5.18-2.718,5.18-5.468v-0.025c0-2.75-2.43-4.507-5.18-4.507H838.99c-2.75,0-5.053-2.743-5.053-5.493v-0.796
		c0-2.75,2.303-4.711,5.053-4.711h81.766c2.75,0,5.18-2.539,5.18-5.289v-0.796c0-2.75-2.43-4.915-5.18-4.915H838.99
		c-2.75,0-5.053-2.335-5.053-5.085v-0.025c0-2.75,2.303-4.89,5.053-4.89h81.766c2.75,0,5.18-2.36,5.18-5.11v-0.796
		c0-2.75-2.43-5.094-5.18-5.094H838.99c-2.75,0-5.053-2.156-5.053-4.906v-0.025c0-2.75,2.303-5.069,5.053-5.069h81.766
		c2.75,0,5.18-2.181,5.18-4.931v-0.796c0-2.75-2.43-5.273-5.18-5.273h-82.82"/>
</g>
<line fill="none" stroke="#B6B6B6" stroke-width="2" stroke-miterlimit="10" x1="826.664" y1="236.514" x2="826.664" y2="247.31"/>
<path fill="none" stroke="#B6B6B6" stroke-width="2" stroke-miterlimit="10" d="M835.145,209.334v19.054c0,0,0,3.567,3.438,3.567"/>
<polyline fill="none" stroke="#B6B6B6" stroke-width="2" stroke-miterlimit="10" points="948.12,212.861 948.12,392.133 
	947.471,413.209 947.471,508.344 "/>
<line fill="none" stroke="#B6B6B6" stroke-width="2" stroke-miterlimit="10" x1="837.844" y1="205.13" x2="939.911" y2="205.13"/>
<path fill="none" stroke="#B6B6B6" stroke-width="2" stroke-miterlimit="10" d="M62.678,862.172c0-2.658-3.055-4.272-3.055-4.272
	L9.182,834.282c-2.932-1.327-2.993-4.203-2.993-4.203v-4.625c0-3.898,1.353-7.811,5.719-7.811h9.694l4.982-0.025h88.377
	c4.1,0,6.826,2.336,6.826,6.231v3.905"/>
<path fill="none" stroke="#B6B6B6" stroke-width="2" stroke-miterlimit="10" d="M214.818,836.825"/>
<path fill="none" stroke="#B6B6B6" stroke-width="2" stroke-miterlimit="10" d="M210.94,836.825"/>
<path fill="none" stroke="#B6B6B6" stroke-width="2" stroke-miterlimit="10" d="M12.243,827.779v-1.628
	c0-2.119,1.458-3.407,3.576-3.407h11.977"/>
<path fill="none" stroke="#B6B6B6" stroke-width="2" stroke-miterlimit="10" d="M31.652,822.781h81.253
	c1.923,0,3.09,1.17,3.09,3.093v1.975v3.204l5.792-2.276v-3.34"/>
<path fill="none" stroke="#B6B6B6" stroke-width="2" stroke-miterlimit="10" d="M90.188,843.367l26.051-8.948l6.287-2.52
	c13.712-4.414,25.46-6.997,28.547-11.355c2.992-7.26-1.276-13.625-7.425-16.489c-9.256-5.073-13.088-24.508-13.088-24.508
	l-4.775,0.294c-8.703-3.947-10.679-12.495-8.542-17.955c1.336-3.413,5.195-4.321,7.901-4.523c0,0,3.034-1.226,3.035-3.811
	l0.001-4.387c0,0,1.27-3.418,2.72-2.037"/>
<path fill="none" stroke="#B6B6B6" stroke-width="2" stroke-miterlimit="10" d="M138.801,835.256"/>
<path fill="none" stroke="#B6B6B6" stroke-width="2" stroke-miterlimit="10" d="M117.24,760.301"/>
<path fill="none" stroke="#B6B6B6" stroke-width="2" stroke-miterlimit="10" d="M120.907,867.304v-29.543c0,0-0.204-0.546,0.88-0.92
	l10.596-3.134l3.472,1.584c34.191,14.632,62.852,0,62.852,0c13.155,3.571,31.441,8.075,44.18,18.842
	c8.051,7.663,11.305,18.728,11.663,22.168c0,0,3.748,13.882-8.173,13.882"/>
<path fill="none" stroke="#B6B6B6" stroke-width="2" stroke-miterlimit="10" d="M115.987,865.024v17.456
	c0,0,0.278,1.139,1.524,1.139h2.228c1.246,0,1.169-1.238,1.169-1.238v-17.154"/>
<polyline fill="none" stroke="#B6B6B6" stroke-width="2" stroke-miterlimit="10" points="174.501,895.01 87.667,895.01 
	81.51,895.01 81.51,890.183 87.667,890.183 125.68,890.183 "/>
<path fill="none" stroke="#B6B6B6" stroke-width="2" stroke-miterlimit="10" d="M209.401,757.484
	c2.603,0.345,5.773,1.407,6.961,4.43c2.153,5.479,0.16,14.042-8.611,18.004l-4.811-0.326c0,0-3.864,19.44-13.193,24.532
	c-6.197,2.875-10.499,9.135-7.485,16.42c5.975,8.399,44.15,9.965,66.706,30.868c8.963,9.354,12.586,22.861,12.985,27.061
	c0,0,3.46,16.538-9.812,16.538h-85.64"/>
<circle fill="none" stroke="#B6B6B6" stroke-width="2" stroke-miterlimit="10" cx="149.419" cy="769.495" r="10.618"/>
<circle fill="none" stroke="#B6B6B6" stroke-width="2" stroke-miterlimit="10" cx="181.274" cy="769.495" r="10.618"/>
<path fill="none" stroke="#B6B6B6" stroke-width="2" stroke-miterlimit="10" d="M160.037,770.219c0,0,4.947-5.43,10.618,0"/>
<path fill="none" stroke="#B6B6B6" stroke-width="2" stroke-miterlimit="10" d="M160.144,739.939"/>
<path fill="none" stroke="#B6B6B6" stroke-width="2" stroke-miterlimit="10" d="M138.801,767.806l-15.445-14.721
	c0,0-2.855-41.343,43.324-43.585"/>
<path fill="none" stroke="#B6B6B6" stroke-width="2" stroke-miterlimit="10" d="M210.005,753.085c0,0,2.855-41.344-43.325-43.585"/>
<line fill="none" stroke="#B6B6B6" stroke-width="2" stroke-miterlimit="10" x1="210.02" y1="753.052" x2="209.401" y2="757.484"/>
<path fill="none" stroke="#B6B6B6" stroke-width="2" stroke-miterlimit="10" d="M112.687,1267.214"/>
<path fill="none" stroke="#B6B6B6" stroke-width="2" stroke-miterlimit="10" d="M76.83,1186.786
	c19.51-0.07,37.907,11.818,45.199,31.145c4.064,10.773,4.011,22.09,0.623,32.22"/>
<g>
	<path fill="none" stroke="#B6B6B6" stroke-width="2" stroke-miterlimit="10" d="M73.38,1240.416l-14.816,1.773
		c-1.638,0.196-3.139-0.984-3.335-2.622l-0.379-3.168c-0.196-1.638,0.984-3.139,2.622-3.335l14.816-1.773"/>
</g>
<path fill="none" stroke="#B6B6B6" stroke-width="2" stroke-miterlimit="10" d="M72.324,1240.398"/>
<g>
	<path fill="none" stroke="#B6B6B6" stroke-width="2" stroke-miterlimit="10" d="M81.4,1229.76l15.728-1.882
		c1.638-0.196,3.139,0.984,3.335,2.622l0.379,3.168c0.196,1.638-0.984,3.139-2.622,3.335l-15.728,1.882"/>
</g>
<path fill="none" stroke="#B6B6B6" stroke-width="2" stroke-miterlimit="10" d="M82.492,1238.885"/>
<line fill="none" stroke="#B6B6B6" stroke-width="2" stroke-miterlimit="10" x1="77.256" y1="1199.004" x2="80.998" y2="1230.271"/>
<path fill="none" stroke="#B6B6B6" stroke-width="2" stroke-miterlimit="10" d="M58.239,1238.8"/>
<g>
	<path fill="none" stroke="#B6B6B6" stroke-width="2" stroke-miterlimit="10" d="M81.981,1238.484l1.992,16.641
		c0.196,1.638-0.984,3.139-2.622,3.335l-3.168,0.379c-1.638,0.196-3.139-0.984-3.335-2.622l-1.882-15.728"/>
</g>
<path fill="none" stroke="#B6B6B6" stroke-width="2" stroke-miterlimit="10" d="M96.764,1362.391l0.459-1.255
	c0.985-3.367-1.908-3.391-1.908-3.391h-2.863"/>
<g>
	<line fill="none" stroke="#B6B6B6" stroke-width="2" stroke-miterlimit="10" x1="92.735" y1="1373.17" x2="96.828" y2="1362.192"/>
</g>
<g>
	<path fill="none" stroke="#B6B6B6" stroke-width="2" stroke-miterlimit="10" d="M135.589,1355.968l8,21.34
		c0.576,1.546-0.302,2.692-1.952,2.692H93.03c-1.65,0-2.528-1.146-1.952-2.692l1.657-4.386"/>
</g>
<g>
	<path fill="none" stroke="#B6B6B6" stroke-width="2" stroke-miterlimit="10" d="M122.025,1250.272l45.784,26.335
		c2.384,1.371,3.212,4.443,1.841,6.827l-4.876,8.477c-1.371,2.384-4.443,3.212-6.827,1.841l-45.784-26.335"/>
</g>
<line fill="none" stroke="#B6B6B6" stroke-width="2" stroke-miterlimit="10" x1="824.434" y1="1644.712" x2="840.539" y2="1644.712"/>
<path fill="none" stroke="#B6B6B6" stroke-width="2" stroke-miterlimit="10" d="M930.536,1765.8
	c-6.476,12.516-19.544,21.071-34.609,21.071c-21.507,0-38.942-17.435-38.942-38.943c0-21.507,17.435-38.942,38.942-38.942
	c20.163,0,36.747,15.324,38.741,34.961"/>
<path fill="none" stroke="#B6B6B6" stroke-width="2" stroke-miterlimit="10" d="M849.557,1734.425
	c1.189-3.636,2.807-7.078,4.794-10.266"/>
<path fill="none" stroke="#B6B6B6" stroke-width="2" stroke-miterlimit="10" d="M846.43,1754.422
	c-0.192-1.733-0.291-3.494-0.291-5.278c0-1.72,0.092-3.419,0.271-5.091"/>
<path fill="none" stroke="#B6B6B6" stroke-width="2" stroke-miterlimit="10" d="M856.189,1774.217
	c-2.148-3.232-3.91-6.743-5.219-10.467"/>
<path fill="none" stroke="#B6B6B6" stroke-width="2" stroke-miterlimit="10" d="M840.036,1644.132v-30.197
	c0-4.152-2.894-2.81-3.661-1.983c-0.671,0.723-24.326,24.807-30.24,30.827c0,0-1.329,1.353-1.329,3.366v164.301
	c0,4.09,3.316,7.32,7.406,7.32h128.121c4.09,0,7.406-3.23,7.406-7.32v-194.774"/>
<g>
	<path fill="none" stroke="#B6B6B6" stroke-width="2" stroke-miterlimit="10" d="M934.937,1692v30.677c0,2.75-1.9,6.404-4.049,8.12
		l-40.224,32.061c-2.149,1.716-5.553,1.548-7.521-0.373l-7.365-7.172c-1.968-1.921-4.944-2.097-6.603-0.391
		c-1.659,1.706-1.41,4.673,0.557,6.594l13.578,13.257c1.968,1.921,5.342,2.098,7.5,0.393l29.798-23.54
		c2.158-1.705,5.449-4.167,7.125-5.472c1.676-1.305,3.202-0.122,3.202,2.628V1766"/>
</g>
<path fill="none" stroke="#B6B6B6" stroke-width="2" stroke-miterlimit="10" d="M112.687,1267.214
	c-4.968,5.497-11.284,9.924-18.693,12.719c-24.863,9.38-52.623-3.172-62.002-28.035c-8.709-23.085,1.489-48.668,22.894-59.716
	c0,0,3.289-1.722,4.5,1.209c0.696,1.683,1.582,3.829,2.29,5.541c0,0,1.222,2.633-1.532,4.244
	c-15.852,8.345-23.372,27.388-16.885,44.582c7.024,18.618,27.811,28.017,46.429,20.993c18.618-7.024,28.017-27.811,20.993-46.429
	c-5.455-14.46-19.213-23.359-33.809-23.322"/>
<path fill="none" stroke="#B6B6B6" stroke-width="2" stroke-miterlimit="10" d="M13.436,1202.078v-7.423
	c0-7.871,7.626-13.869,15.497-13.869h32.291c0,0,4.626,0.248,5.078,4.027l5.571,46.55"/>
<path fill="none" stroke="#B6B6B6" stroke-width="2" stroke-miterlimit="10" d="M135.589,1355.968l-3.55-9.871
	c-0.985-3.367,2.05-3.493,2.05-3.493h71.919c0.828-0.651-0.221-1.895-0.221-1.895c-0.164-0.472-0.253-0.979-0.253-1.507
	c0-2.539,2.058-4.597,4.597-4.597c2.539,0,4.597,2.058,4.597,4.597c0,0.635-0.129,1.239-0.361,1.789c0,0-0.67,1.614,0.158,1.614
	h16.51c4.981-3.785,3.984-16.087,3.984-16.087H16.748c-3.312,0-3.312-3.312-3.312-3.312v-121.126"/>
<g>
	<path fill="none" stroke="#B6B6B6" stroke-width="2" stroke-miterlimit="10" d="M831.937,1804c0,0-3.514,0-7.251,0
		c-3.737,0-6.749-3.926-6.749-8.326v-3.628c0-4.4,0-11.6,0-16V1650"/>
</g>
<g>
	<path fill="none" stroke="#B6B6B6" stroke-width="2" stroke-miterlimit="10" d="M831.937,1645c0,0-3.514,0-7.251,0
		c-3.737,0-6.749,3.511-6.749,7.802s0,8.198,0,8.198"/>
</g>
<polyline fill="none" stroke="#B6B6B6" stroke-width="2" stroke-miterlimit="10" points="831.48,1803.674 926.097,1803.674 
	934.653,1803.674 934.653,1775.993 "/>
<line fill="none" stroke="#B6B6B6" stroke-width="2" stroke-miterlimit="10" x1="934.653" y1="1775.993" x2="934.653" y2="1743.783"/>
<g>
	<path fill="none" stroke="#B6B6B6" stroke-width="2" stroke-miterlimit="10" d="M848.937,1754h-11.359
		c-2.75,0-4.641,2.671-4.641,5.421v0.368c0,2.75,1.891,5.211,4.641,5.211h13.359"/>
</g>
<g>
	<path fill="none" stroke="#B6B6B6" stroke-width="2" stroke-miterlimit="10" d="M850.937,1734h-13.359c-2.75,0-5,2.352-5,5
		s2.25,5,5,5h11.359"/>
</g>
<g>
	<path fill="none" stroke="#B6B6B6" stroke-width="2" stroke-miterlimit="10" d="M855.937,1774h-18.359c-2.75,0-5,2.352-5,5
		s2.25,5,5,5h17.359"/>
</g>
<g>
	<path fill="none" stroke="#B6B6B6" stroke-width="2" stroke-miterlimit="10" d="M863.937,1714h-26.359c-2.75,0-5,2.352-5,5
		s2.25,5,5,5h17.359"/>
</g>
<path fill="none" stroke="#838383" stroke-width="2" stroke-miterlimit="10" d="M-323.312,608.155"/>
<path fill="none" stroke="#B6B6B6" stroke-width="2" stroke-miterlimit="10" d="M838.446,205.237c-3.773,0-3.773,3.914-3.773,3.914
	v1.481"/>
<line fill="none" stroke="#B6B6B6" stroke-width="2" stroke-miterlimit="10" x1="27.911" y1="822.805" x2="31.848" y2="822.805"/>
<line fill="none" stroke="#B6B6B6" stroke-width="2" stroke-miterlimit="10" x1="117.68" y1="890.183" x2="246.377" y2="890.183"/>
<path fill="none" stroke="#B6B6B6" stroke-width="2" stroke-miterlimit="10" d="M1.134,1201.132v133.867
	c0,8.802,7.932,16.121,16.734,16.121h211.971c8.802,0,15.44-7.319,15.44-16.121v-149.017c0-8.802-6.638-14.658-15.44-14.658H84.881"
	/>
<path fill="none" stroke="#B6B6B6" stroke-width="2" stroke-miterlimit="10" d="M84.881,1171.323h-1.893
	c0,0-6.151-0.158-6.151,6.151v9.463"/>
<g>
	<path fill="none" stroke="#B6B6B6" stroke-width="2" stroke-miterlimit="10" d="M0.937,1204c0,0,0-8.227,0-18.246
		S7.84,1168,16.037,1168s14.9,0,14.9,0"/>
</g>
<polyline fill="none" stroke="#B6B6B6" stroke-width="2" stroke-miterlimit="10" points="68.937,872 68.937,953.604 
	67.937,1050.155 67.937,1096.639 66.913,1168 40.937,1168 34.298,1168 22.937,1168 "/>
<path fill="none" stroke="#B6B6B6" stroke-width="2" stroke-miterlimit="10" d="M68.937,881v-18.584c0,0,0.098-3.046,3.057-3.984
	l34.421-11.092l9.572-4.53v24.291"/>
<path fill="none" stroke="#B6B6B6" stroke-width="2" stroke-miterlimit="10" d="M717.891,1799.521"/>
<g>
	<path fill="none" stroke="#B6B6B6" stroke-width="2" stroke-miterlimit="10" d="M846.937,1631v-11.581
		c0-4.4,3.745-8.419,8.145-8.419h71.572c4.4,0,8.283,4.019,8.283,8.419V1680"/>
</g>
<g>
	<path fill="none" stroke="#B6B6B6" stroke-width="2" stroke-miterlimit="10" d="M846.937,1644h69.128c2.75,0,4.92,2.005,4.821,4.5
		c-0.098,2.495-2.429,4.5-5.179,4.5h-78.13c-2.75,0-5,2.287-5,5s2.25,5,5,5h78.13c2.75,0,5,1.787,5,4.5s-2.25,4.5-5,4.5h-78.13
		c-2.75,0-5,2.287-5,5s2.25,5,5,5h78.13c2.75,0,5,2.287,5,5s-2.25,5-5,5h-78.13c-2.75,0-5,2.287-5,5s2.25,5,5,5h78.13
		c2.75,0,5.229,2.273,5.229,5.023v0.388c0,2.75-2.383,4.589-5.016,4.589c-2.633,0-4.984,0-4.984,0"/>
</g>
<line fill="none" stroke="#B6B6B6" stroke-width="2" stroke-miterlimit="10" x1="863.69" y1="1714.166" x2="877.782" y2="1714.166"/>
<line fill="none" stroke="#B6B6B6" stroke-width="2" stroke-miterlimit="10" x1="854.631" y1="1783.542" x2="858.657" y2="1783.542"/>
<line fill="none" stroke="#B6B6B6" stroke-width="2" stroke-miterlimit="10" x1="90.559" y1="1357.744" x2="92.452" y2="1357.744"/>
<line fill="none" stroke="#B6B6B6" stroke-width="2" stroke-miterlimit="10" x1="858.657" y1="1783.542" x2="878.789" y2="1783.542"/>
<path fill="none" stroke="#B6B6B6" stroke-width="2" stroke-miterlimit="10" d="M947.937,1616v-81l-0.232-16.225
	c0-20.701-16.781-37.482-37.482-37.482"/>
<line fill="none" stroke="#B6B6B6" stroke-width="2" stroke-miterlimit="10" x1="934.937" y1="1680" x2="934.937" y2="1693"/>
<line fill="none" stroke="#B6B6B6" stroke-width="2" stroke-miterlimit="10" x1="846.937" y1="1629" x2="846.937" y2="1643"/>
<line fill="none" stroke="#B6B6B6" stroke-width="2" stroke-miterlimit="10" x1="27.937" y1="1358" x2="90.937" y2="1358"/>
<line fill="none" stroke="#B6B6B6" stroke-width="2" stroke-miterlimit="10" x1="863.235" y1="1716.011" x2="863.235" y2="1716.011"/>
<path fill="none" stroke="#B6B6B6" stroke-width="2" stroke-miterlimit="10" d="M695.778,253.453"/>
<path fill="none" stroke="#B6B6B6" stroke-width="2" stroke-miterlimit="10" d="M684.037,278.662
	c0.569-3.501,1.491-6.884,2.728-10.111"/>
<path fill="none" stroke="#B6B6B6" stroke-width="2" stroke-miterlimit="10" d="M687.69,307.664
	c-1.603-3.65-2.794-7.522-3.515-11.556"/>
<path fill="none" stroke="#B6B6B6" stroke-width="2" stroke-miterlimit="10" d="M769.31,248.7c1.667,1.5,3.234,3.108,4.693,4.812"/>
<g>
	<path fill="none" stroke="#B6B6B6" stroke-width="2" stroke-miterlimit="10" d="M754.55,239.076
		c-2.047-0.84-4.232-1.429-6.402-2.003l-0.547,1.782c-1.566,5.272-1.991,9.955-0.922,10.369l0,0
		c17.275,4.783,29.948,20.634,29.948,39.431c0,22.586-18.314,40.902-40.899,40.902s-40.897-18.305-40.897-40.891
		c0-21.378,16.403-38.923,37.31-40.738l0,0c1.18,0.083,2.311,0.087,2.515,0.009c0.204-0.079,1.63-4.463,3.169-9.743l3.527-12.347
		c1.539-5.28,7.299-9.847,12.799-9.847h67.786"/>
</g>
<path fill="none" stroke="#B6B6B6" stroke-width="2" stroke-miterlimit="10" d="M695.778,253.453
	c1.509-1.757,3.134-3.411,4.863-4.951"/>
<g>
	<path fill="none" stroke="#B6B6B6" stroke-width="2" stroke-miterlimit="10" d="M754.012,240.346l4.782-5.232
		c1.113-1.218,3.151-1.471,4.529-0.563l6.877,4.534c1.378,0.908,1.97,2.891,1.316,4.406l-2.813,6.52"/>
</g>
<g>
	<path fill="none" stroke="#B6B6B6" stroke-width="2" stroke-miterlimit="10" d="M685.073,296.161l-6.998-1.122
		c-1.629-0.261-2.96-1.825-2.958-3.475l0.012-8.237c0.002-1.65,1.334-3.234,2.959-3.52l6.994-1.231"/>
</g>
<g>
	<path fill="none" stroke="#B6B6B6" stroke-width="2" stroke-miterlimit="10" d="M773.164,253.395l6.622-2.527
		c1.542-0.588,3.476,0.1,4.299,1.531l4.109,7.14c0.823,1.43,0.462,3.468-0.802,4.528l-3.142,2.635
		c-1.264,1.06-2.046,1.973-1.738,2.029c0.308,0.056,0.974,1.387,1.48,2.957l1.064,4.007c0.348,1.613,0.561,2.921,0.474,2.907
		c-0.087-0.014,1.172,0.208,2.797,0.494l4.039,0.711c1.625,0.286,2.956,1.87,2.959,3.52l0.011,8.237
		c0.002,1.65-1.329,3.214-2.958,3.475l-4.036,0.647c-1.629,0.261-2.924,0.469-2.876,0.462c0.047-0.007-0.231,1.299-0.619,2.902
		l-1.719,5.694c-0.572,1.548-1.24,2.647-1.483,2.443c-0.244-0.204,0.591,0.496,1.855,1.556l3.142,2.635
		c1.264,1.06,1.625,3.098,0.802,4.528l-4.109,7.14c-0.823,1.43-2.758,2.119-4.299,1.531l-3.819-1.458
		c-1.542-0.588-2.776-1.059-2.742-1.047s-0.583,0.674-1.369,1.469c-0.787,0.795-2.945,2.875-2.899,3.015
		c0.046,0.14,0.546,1.523,1.111,3.073l1.404,3.853c0.565,1.55-0.141,3.495-1.569,4.322l-7.128,4.129
		c-1.428,0.827-3.448,0.456-4.488-0.824l-2.579-3.172c-1.041-1.28-1.924-2.414-1.962-2.521s-1.28,0.205-2.76,0.691
		c-1.48,0.486-5.53,1.489-5.546,1.561c-0.016,0.071-0.264,1.459-0.55,3.084l-0.711,4.039c-0.286,1.625-1.87,2.956-3.52,2.959
		l-8.237,0.012c-1.65,0.002-3.214-1.329-3.475-2.958l-0.647-4.036c-0.261-1.629-0.442-2.937-0.401-2.906
		c0.041,0.031-1.25-0.206-2.869-0.525l-3.41-0.832c-1.582-0.468-2.928-0.862-2.992-0.873s-0.967,1.026-2.008,2.306l-2.579,3.172
		c-1.041,1.28-3.061,1.651-4.488,0.824l-7.128-4.129c-1.428-0.827-2.134-2.772-1.569-4.322l1.404-3.853
		c0.565-1.55,1.011-2.773,0.991-2.718c-0.02,0.055-0.846-0.603-1.835-1.463s-3.369-3.325-3.3-3.351
		c0.069-0.026-1.136,0.435-2.678,1.023l-3.819,1.458c-1.542,0.588-3.476-0.1-4.299-1.531l-4.109-7.14
		c-0.823-1.43-0.462-3.468,0.802-4.528l5.441-4.563"/>
</g>
<g>
	
		<line fill="none" stroke="#B6B6B6" stroke-width="2" stroke-miterlimit="10" x1="686.672" y1="268.474" x2="686.856" y2="268.628"/>
</g>
<g>
	<path fill="none" stroke="#B6B6B6" stroke-width="2" stroke-miterlimit="10" d="M696.739,254.492l-6.622-2.527
		c-1.542-0.588-3.476,0.1-4.299,1.531l-4.109,7.14c-0.823,1.43-0.462,3.468,0.802,4.528l5.257,4.409"/>
</g>
<g>
	<path fill="none" stroke="#B6B6B6" stroke-width="2" stroke-miterlimit="10" d="M701.18,249.301l-1.897-6.843
		c-0.441-1.59,0.417-3.473,1.905-4.185l7.432-3.553c1.489-0.712,3.473-0.183,4.409,1.176l4.023,5.835"/>
</g>
<path fill="none" stroke="#B6B6B6" stroke-width="2" stroke-miterlimit="10" d="M12.243,827.282l0.101,0.497
	c0,0.865,0.988,1.257,0.988,1.257c5.399,2.538,41.149,19.336,43.246,20.242c2.569,1.031,3.803,1.281,8.407,1.325h0.79
	c2.337,0.013,4.853-0.311,7.113-1.325l17.3-5.955"/>
<path fill="none" stroke="#B6B6B6" stroke-width="2" stroke-miterlimit="10" d="M137.417,745.259c0,1.777-1.616,3.217-3.61,3.217
	c-1.193,0-2.25-0.515-2.907-1.31"/>
<path fill="none" stroke="#B6B6B6" stroke-width="2" stroke-miterlimit="10" d="M151.83,745.556c0,1.367-1.616,2.476-3.61,2.476
	c-1.994,0-3.61-1.108-3.61-2.476"/>
<path fill="none" stroke="#B6B6B6" stroke-width="2" stroke-miterlimit="10" d="M151.917,745.556c0-1.367,1.616-2.476,3.61-2.476
	c1.994,0,3.61,1.108,3.61,2.476c0,0,0.518,1.207,0.847,1.468c0.718,0.57,1.715,1.008,2.907,1.008c1.994,0,3.61-1.108,3.61-2.476"/>
<path fill="none" stroke="#B6B6B6" stroke-width="2" stroke-miterlimit="10" d="M205.433,747.281c0.284,1.519,0,0,0.011,1.011
	l0.102,9.066l-13.55,10.254"/>
<path fill="none" stroke="#B6B6B6" stroke-width="2" stroke-miterlimit="10" d="M137.403,745.556c0-1.367,1.616-2.476,3.61-2.476
	c1.994,0,3.61,1.108,3.61,2.476"/>
<path fill="none" stroke="#B6B6B6" stroke-width="2" stroke-miterlimit="10" d="M180.915,745.556c0,1.367-1.616,2.476-3.61,2.476
	c-1.994,0-3.61-1.108-3.61-2.476"/>
<path fill="none" stroke="#B6B6B6" stroke-width="2" stroke-miterlimit="10" d="M181.002,745.556c0-1.367,1.616-2.476,3.61-2.476
	c1.994,0,3.61,1.108,3.61,2.476"/>
<path fill="none" stroke="#B6B6B6" stroke-width="2" stroke-miterlimit="10" d="M166.488,745.556c0-1.367,1.616-2.476,3.61-2.476
	c1.994,0,3.61,1.108,3.61,2.476"/>
<path fill="none" stroke="#B6B6B6" stroke-width="2" stroke-miterlimit="10" d="M195.457,745.556c0,1.367-1.616,2.476-3.61,2.476
	c-1.994,0-3.61-1.108-3.61-2.476"/>
<path fill="none" stroke="#B6B6B6" stroke-width="2" stroke-miterlimit="10" d="M210.129,745.259"/>
<path fill="none" stroke="#B6B6B6" stroke-width="2" stroke-miterlimit="10" d="M195.545,745.556c0-1.367,1.616-2.476,3.61-2.476
	s3.61,1.108,3.61,2.476c0,0,0.518,1.207,0.846,1.468c0.718,0.57,1.715,1.008,2.907,1.008"/>
<path fill="none" stroke="#B6B6B6" stroke-width="2" stroke-miterlimit="10" d="M746.131,546.651l164.84,0.011
	c20.701,0,36.802-18.617,36.802-39.317"/>
<path fill="none" stroke="#B6B6B6" stroke-width="2" stroke-miterlimit="10" d="M62.207,895.01H8.205c-2.234,0-5.88-2.846-5.88-5.08
	v-58.459l0.059-31.877v-104.12v-68.526v-26.726l0.033-0.25c0-29.467,23.888-53.354,53.354-53.354l490.361,0.032"/>
<polyline fill="none" stroke="#B6B6B6" stroke-width="2" stroke-miterlimit="10" points="63.065,862.172 63.065,895.01 
	63.522,895.01 50.723,895.01 54.107,895.01 "/>
<path fill="none" stroke="#B6B6B6" stroke-width="2" stroke-miterlimit="10" d="M935.656,204.91h2.351c5.523,0,10,4.477,10,10v2.725
	"/>
<line fill="none" stroke="#B6B6B6" stroke-width="2" stroke-miterlimit="10" x1="546.131" y1="546.651" x2="746.131" y2="546.651"/>
<line fill="none" stroke="#B6B6B6" stroke-width="2" stroke-miterlimit="10" x1="709.937" y1="1481" x2="910.223" y2="1481"/>
<line fill="none" stroke="#B6B6B6" stroke-width="2" stroke-miterlimit="10" x1="620.198" y1="83.218" x2="720.198" y2="83.218"/>
</svg>
