<?xml version="1.0" encoding="utf-8"?>
<!-- Generator: Adobe Illustrator 17.0.0, SVG Export Plug-In . SVG Version: 6.00 Build 0)  -->
<!DOCTYPE svg PUBLIC "-//W3C//DTD SVG 1.1//EN" "http://www.w3.org/Graphics/SVG/1.1/DTD/svg11.dtd">
<svg version="1.1" id="Layer_1" xmlns="http://www.w3.org/2000/svg" xmlns:xlink="http://www.w3.org/1999/xlink" x="0px" y="0px"
	 width="115px" height="826px" viewBox="0 0 115 826" enable-background="new 0 0 115 826" xml:space="preserve">
<rect x="23.239" y="413.527" fill="none" width="67.793" height="26.193"/>
<text transform="matrix(1 0 0 1 30.043 431.9114)" fill="#666666" font-family="'MicrosoftYaHei'" font-size="23">特 点</text>
<path fill="none" stroke="#B4B4B4" stroke-width="2" stroke-miterlimit="10" d="M48.81,475.606c4.805,0,8.7,4.265,8.7,9.07
	l-0.009,1.805V826"/>
<line fill="none" stroke="#B4B4B4" stroke-width="2" stroke-miterlimit="10" x1="57.5" y1="228" x2="57.5" y2="67"/>
<path fill="none" stroke="#B4B4B4" stroke-width="2" stroke-miterlimit="10" d="M8.19,415.925c-0.205,1.466-1.475,2.751-3.01,2.751
	c-1.678,0-3.039-1.27-3.039-2.934l0.002-0.102c2.573-24.415,21.172-44.034,45.082-48.183l2.301-0.414
	c4.469-0.428,7.982-4.798,7.982-9.361l-0.009-2.001V251"/>
<path fill="none" stroke="#B4B4B4" stroke-width="2" stroke-miterlimit="10" d="M46.393,371.84"/>
<path fill="none" stroke="#B4B4B4" stroke-width="2" stroke-miterlimit="10" d="M49.068,475.597
	c-25.163-3.488-44.866-24.052-47.031-49.614l-0.044-0.795c0.025-0.346,0.053-0.692,0.084-1.039l0.025-0.137
	c0.319-1.603,1.895-2.64,3.521-2.317c1.315,0.261,2.26,1.333,2.404,2.582l0.005,1.431c2.098,25.207,23.221,45.01,48.97,45.01
	c27.14,0,49.141-22.001,49.141-49.141s-22.001-49.141-49.141-49.141c-25.351,0-46.219,19.197-48.859,43.847"/>
<path fill="none" stroke="#B4B4B4" stroke-width="2" stroke-miterlimit="10" d="M57.408,484.263"/>
<path fill="none" stroke="#B4B4B4" stroke-width="2" stroke-miterlimit="10" d="M57.408,484.263"/>
<line fill="none" stroke="#FFFFFF" stroke-width="2" stroke-miterlimit="10" x1="57.5" y1="45" x2="57.5" y2="0"/>
<line fill="none" stroke="#B4B4B4" stroke-width="2" stroke-miterlimit="10" x1="57.5" y1="67" x2="57.5" y2="0"/>
<line fill="none" stroke="#B4B4B4" stroke-width="2" stroke-miterlimit="10" x1="57.5" y1="228" x2="57.5" y2="251"/>
</svg>
