<?xml version="1.0" encoding="utf-8"?>
<!-- Generator: Adobe Illustrator 17.0.0, SVG Export Plug-In . SVG Version: 6.00 Build 0)  -->
<!DOCTYPE svg PUBLIC "-//W3C//DTD SVG 1.1//EN" "http://www.w3.org/Graphics/SVG/1.1/DTD/svg11.dtd">
<svg version="1.1" id="Layer_1" xmlns="http://www.w3.org/2000/svg" xmlns:xlink="http://www.w3.org/1999/xlink" x="0px" y="0px"
	 width="1384px" height="1980.094px" viewBox="0 0 1384 1980.094" enable-background="new 0 0 1384 1980.094" xml:space="preserve">
<path fill="none" stroke="#DCDCDC" stroke-width="2" stroke-miterlimit="10" d="M-305.591,27.76"/>
<path fill="none" stroke="#B6B6B6" stroke-width="2" stroke-miterlimit="10" d="M730.44,83.019
	c-20.701,0-37.482-16.781-37.482-37.482"/>
<line fill="none" stroke="#B6B6B6" stroke-width="2" stroke-miterlimit="10" x1="692.937" y1="46" x2="692.937" y2="0"/>
<path fill="none" stroke="#DCDCDC" stroke-width="2" stroke-miterlimit="10" d="M-359.94,27.058"/>
<line fill="none" stroke="#B6B6B6" stroke-width="2" stroke-miterlimit="10" x1="728.937" y1="83" x2="1120.937" y2="83"/>
<path fill="none" stroke="#B6B6B6" stroke-width="2" stroke-miterlimit="10" d="M37.937,1378H16.621
	c-9.905,0-9.684,9.384-9.684,9.384v48.94l0.327,27.487c0,20.701,16.886,37.579,37.587,37.579"/>
<path fill="none" stroke="#B6B6B6" stroke-width="2" stroke-miterlimit="10" d="M1236.148,212.721h125.003
	c3.931,0,7.117,3.186,7.117,7.117V396.98c0,3.931-3.186,7.117-7.117,7.117h-125.348c-3.931,0-7.117-3.186-7.117-7.117V235.984
	c0,0,0-3.073,3.073-3.073h7.023c0,0,3.073-0.146,3.073,3.073v13.168"/>
<path fill="none" stroke="#B6B6B6" stroke-width="2" stroke-miterlimit="10" d="M1355.1,373.811v6.54
	c0,3.201-2.156,6.189-5.358,6.189h-102.091c-3.201,0-5.797-2.987-5.797-6.189V249.152"/>
<g>
	<path fill="none" stroke="#B6B6B6" stroke-width="2" stroke-miterlimit="10" d="M1354.937,374h-99.743c-2.75,0-5.257-2-5.257-4.75
		v-2.29c0-2.75,2.507-4.959,5.257-4.959h94.467c2.75,0,5.276-2.291,5.276-5.041v-1.412c0-2.75-2.526-4.547-5.276-4.547h-94.467
		c-2.75,0-5.257-2.703-5.257-5.453v-2.29c0-2.75,2.507-5.257,5.257-5.257h94.467c2.75,0,5.276-1.993,5.276-4.743v-1.412
		c0-2.75-2.526-4.844-5.276-4.844h-94.467c-2.75,0-5.257-2.406-5.257-5.156v-2.29c0-2.75,2.507-4.554,5.257-4.554h94.467
		c2.75,0,5.276-2.696,5.276-5.446v-1.412c0-2.75-2.526-5.142-5.276-5.142h-94.467c-2.75,0-5.257-2.108-5.257-4.858v-2.29
		c0-2.75,2.507-4.851,5.257-4.851h94.467c2.75,0,5.276-2.399,5.276-5.149v-2.29c0-2.75-2.526-4.561-5.276-4.561h-94.467
		c-2.75,0-5.257-2.689-5.257-5.439v-1.412c0-2.75,2.507-5.149,5.257-5.149h94.467c2.75,0,5.276-2.101,5.276-4.851v-2.29
		c0-2.75-2.526-4.859-5.276-4.859h-94.467c-2.75,0-5.257-2.391-5.257-5.141v-1.412c0-2.75,2.507-5.446,5.257-5.446h94.467
		c2.75,0,5.276-1.804,5.276-4.554v-2.29c0-2.75-2.526-5.156-5.276-5.156h-94.724"/>
</g>
<line fill="none" stroke="#B6B6B6" stroke-width="2" stroke-miterlimit="10" x1="1241.854" y1="235.984" x2="1241.854" y2="248.274"/>
<path fill="none" stroke="#B6B6B6" stroke-width="2" stroke-miterlimit="10" d="M1251.509,205.042v21.691c0,0,0,4.06,3.914,4.06"/>
<g>
	<path fill="none" stroke="#B6B6B6" stroke-width="2" stroke-miterlimit="10" d="M1254.937,200h113.183
		c6.6,0,11.817,5.657,11.817,12.257V413"/>
</g>
<path fill="none" stroke="#B6B6B6" stroke-width="2" stroke-miterlimit="10" d="M75.939,857.37c0-3.046-3.502-4.896-3.502-4.896
	L14.62,825.401c-3.361-1.521-3.431-4.817-3.431-4.817v-5.302c0-4.468,1.55-8.953,6.556-8.953h11.112l5.711-0.028h101.301
	c4.7,0,7.824,2.677,7.824,7.142v4.476"/>
<path fill="none" stroke="#B6B6B6" stroke-width="2" stroke-miterlimit="10" d="M250.327,828.316"/>
<path fill="none" stroke="#B6B6B6" stroke-width="2" stroke-miterlimit="10" d="M245.882,828.316"/>
<path fill="none" stroke="#B6B6B6" stroke-width="2" stroke-miterlimit="10" d="M18.129,817.948v-1.866
	c0-2.429,1.671-3.906,4.099-3.906h13.728"/>
<path fill="none" stroke="#B6B6B6" stroke-width="2" stroke-miterlimit="10" d="M40.376,812.218h93.135
	c2.204,0,3.542,1.341,3.542,3.545v2.264v3.672l6.639-2.609v-3.828"/>
<path fill="none" stroke="#B6B6B6" stroke-width="2" stroke-miterlimit="10" d="M107.471,835.815l29.861-10.256l7.206-2.888
	c15.718-5.06,29.183-8.02,32.722-13.015c3.43-8.321-1.462-15.618-8.511-18.9c-10.609-5.815-15.002-28.091-15.002-28.091
	l-5.473,0.337c-9.976-4.524-12.241-14.322-9.791-20.581c1.531-3.912,5.954-4.953,9.056-5.184c0,0,3.478-1.406,3.479-4.369
	l0.001-5.028c0,0,1.456-3.918,3.117-2.335"/>
<path fill="none" stroke="#B6B6B6" stroke-width="2" stroke-miterlimit="10" d="M163.193,826.518"/>
<path fill="none" stroke="#B6B6B6" stroke-width="2" stroke-miterlimit="10" d="M138.48,740.602"/>
<path fill="none" stroke="#B6B6B6" stroke-width="2" stroke-miterlimit="10" d="M142.683,863.252v-33.863
	c0,0-0.234-0.626,1.009-1.055l12.146-3.592l3.98,1.815c39.19,16.771,72.043,0,72.043,0c15.078,4.093,36.038,9.256,50.641,21.597
	c9.228,8.783,12.958,21.466,13.368,25.41c0,0,4.296,15.912-9.368,15.912"/>
<path fill="none" stroke="#B6B6B6" stroke-width="2" stroke-miterlimit="10" d="M137.043,860.639v20.009
	c0,0,0.318,1.305,1.747,1.305h2.553c1.428,0,1.339-1.419,1.339-1.419v-19.663"/>
<line fill="none" stroke="#B6B6B6" stroke-width="2" stroke-miterlimit="10" x1="137.043" y1="835.176" x2="137.043" y2="863.02"/>
<path fill="none" stroke="#B6B6B6" stroke-width="2" stroke-miterlimit="10" d="M244.117,737.373
	c2.984,0.395,6.617,1.613,7.979,5.078c2.467,6.281,0.184,16.095-9.87,20.637l-5.515-0.374c0,0-4.43,22.282-15.122,28.119
	c-7.103,3.295-12.035,10.471-8.579,18.821c6.849,9.628,50.606,11.422,76.461,35.382c10.274,10.722,14.427,26.204,14.883,31.018
	c0,0,3.966,18.956-11.247,18.956h-98.163H95.412h-7.057v-5.533h7.057h43.572"/>
<circle fill="none" stroke="#B6B6B6" stroke-width="2" stroke-miterlimit="10" cx="175.364" cy="751.14" r="12.171"/>
<circle fill="none" stroke="#B6B6B6" stroke-width="2" stroke-miterlimit="10" cx="211.877" cy="751.14" r="12.171"/>
<path fill="none" stroke="#B6B6B6" stroke-width="2" stroke-miterlimit="10" d="M187.535,751.97c0,0,5.671-6.224,12.171,0"/>
<path fill="none" stroke="#B6B6B6" stroke-width="2" stroke-miterlimit="10" d="M187.658,717.263"/>
<path fill="none" stroke="#B6B6B6" stroke-width="2" stroke-miterlimit="10" d="M163.193,749.204l-17.703-16.873
	c0,0-3.273-47.389,49.659-49.959"/>
<path fill="none" stroke="#B6B6B6" stroke-width="2" stroke-miterlimit="10" d="M244.81,732.331c0,0,3.273-47.39-49.661-49.959"/>
<line fill="none" stroke="#B6B6B6" stroke-width="2" stroke-miterlimit="10" x1="244.827" y1="732.293" x2="244.117" y2="737.373"/>
<g>
	<path fill="none" stroke="#B6B6B6" stroke-width="2" stroke-miterlimit="10" d="M136.937,835v-1.236
		c-1-0.166-6.707,1.076-11.943,2.76l-30.589,9.846c-5.236,1.684-10.13,3.958-10.993,5.054c-0.863,1.096-1.474,6.492-1.474,11.992
		v80.188c0,5.5-0.114,14.5-0.152,20l-0.654,76.552c-0.038,5.5-0.194,14.5-0.194,20v12.484c0,5.5,0.008,14.499-0.085,19.999
		l-0.813,51.139c-0.092,5.499-4.626,10.223-10.126,10.223H53.937"/>
</g>
<path fill="none" stroke="#B6B6B6" stroke-width="2" stroke-miterlimit="10" d="M137.219,1271.425"/>
<path fill="none" stroke="#B6B6B6" stroke-width="2" stroke-miterlimit="10" d="M95.083,1176.915
	c22.926-0.083,44.544,13.887,53.112,36.598c4.776,12.659,4.713,25.958,0.732,37.861"/>
<g>
	<path fill="none" stroke="#B6B6B6" stroke-width="2" stroke-miterlimit="10" d="M91.03,1239.935l-17.931,2.146
		c-1.638,0.196-3.139-0.984-3.335-2.622l-0.57-4.766c-0.196-1.638,0.984-3.139,2.622-3.335l17.931-2.146"/>
</g>
<path fill="none" stroke="#B6B6B6" stroke-width="2" stroke-miterlimit="10" d="M89.789,1239.913"/>
<g>
	<path fill="none" stroke="#B6B6B6" stroke-width="2" stroke-miterlimit="10" d="M100.454,1227.413l19.004-2.274
		c1.638-0.196,3.139,0.984,3.335,2.622l0.57,4.766c0.196,1.638-0.984,3.139-2.622,3.335l-19.004,2.274"/>
</g>
<path fill="none" stroke="#B6B6B6" stroke-width="2" stroke-miterlimit="10" d="M101.737,1238.136"/>
<line fill="none" stroke="#B6B6B6" stroke-width="2" stroke-miterlimit="10" x1="95.585" y1="1191.272" x2="99.982" y2="1228.014"/>
<path fill="none" stroke="#B6B6B6" stroke-width="2" stroke-miterlimit="10" d="M73.237,1238.036"/>
<g>
	<path fill="none" stroke="#B6B6B6" stroke-width="2" stroke-miterlimit="10" d="M101.137,1237.664l2.403,20.076
		c0.196,1.638-0.984,3.139-2.622,3.335l-4.766,0.57c-1.638,0.196-3.139-0.984-3.335-2.622l-2.274-19.004"/>
</g>
<path fill="none" stroke="#B6B6B6" stroke-width="2" stroke-miterlimit="10" d="M118.507,1383.266l0.54-1.475
	c1.158-3.957-2.242-3.985-2.242-3.985h-3.365"/>
<g>
	
		<line fill="none" stroke="#B6B6B6" stroke-width="2" stroke-miterlimit="10" x1="113.773" y1="1395.933" x2="118.583" y2="1383.032"/>
</g>
<g>
	<path fill="none" stroke="#B6B6B6" stroke-width="2" stroke-miterlimit="10" d="M164.13,1375.718l9.584,25.59
		c0.576,1.546-0.302,2.692-1.952,2.692h-58.168c-1.65,0-2.528-1.146-1.952-2.692l2.131-5.657"/>
</g>
<g>
	<path fill="none" stroke="#B6B6B6" stroke-width="2" stroke-miterlimit="10" d="M148.191,1251.516l54.559,31.382
		c2.384,1.371,3.212,4.443,1.841,6.827l-6.603,11.479c-1.371,2.384-4.443,3.212-6.827,1.841l-54.559-31.382"/>
</g>
<line fill="none" stroke="#B6B6B6" stroke-width="2" stroke-miterlimit="10" x1="1234.524" y1="1655.115" x2="1253.097" y2="1655.115"/>
<path fill="none" stroke="#B6B6B6" stroke-width="2" stroke-miterlimit="10" d="M1356.886,1794.758
	c-7.469,14.435-22.539,24.3-39.912,24.3c-24.803,0-44.91-20.107-44.91-44.91c0-24.803,20.107-44.91,44.91-44.91
	c23.253,0,42.379,17.672,44.678,40.318"/>
<path fill="none" stroke="#B6B6B6" stroke-width="2" stroke-miterlimit="10" d="M1263.498,1757.422
	c1.372-4.193,3.238-8.162,5.529-11.839"/>
<path fill="none" stroke="#B6B6B6" stroke-width="2" stroke-miterlimit="10" d="M1259.891,1780.484
	c-0.222-1.998-0.336-4.029-0.336-6.087c0-1.984,0.106-3.943,0.312-5.872"/>
<path fill="none" stroke="#B6B6B6" stroke-width="2" stroke-miterlimit="10" d="M1271.145,1803.312
	c-2.478-3.727-4.509-7.776-6.019-12.071"/>
<path fill="none" stroke="#B6B6B6" stroke-width="2" stroke-miterlimit="10" d="M1252.517,1654.445v-34.825
	c0-4.788-3.337-3.241-4.222-2.287c-0.774,0.834-28.054,28.609-34.874,35.551c0,0-1.533,1.561-1.533,3.882v189.479
	c0,4.717,3.824,8.442,8.541,8.442h147.755c4.717,0,8.541-3.725,8.541-8.442v-224.623"/>
<g>
	<path fill="none" stroke="#B6B6B6" stroke-width="2" stroke-miterlimit="10" d="M1361.937,1710v35.794
		c0,2.75-1.909,6.404-4.058,8.12l-47.579,37.931c-2.149,1.716-5.555,1.548-7.523-0.373l-9.589-9.342
		c-1.968-1.921-5.152-1.883-7.065,0.084s-1.873,5.149,0.095,7.07l16.756,16.359c1.968,1.921,5.342,2.098,7.5,0.393l35.567-28.097
		c2.158-1.705,5.477-4.331,7.41-5.835c1.933-1.505,3.487-0.486,3.487,2.264V1795"/>
</g>
<path fill="none" stroke="#B6B6B6" stroke-width="2" stroke-miterlimit="10" d="M137.219,1271.425
	c-5.838,6.459-13.26,11.662-21.966,14.946c-29.216,11.022-61.836-3.727-72.858-32.944c-10.234-27.128,1.75-57.189,26.903-70.172
	c0,0,3.865-2.023,5.288,1.42c0.817,1.978,1.859,4.499,2.691,6.511c0,0,1.436,3.094-1.801,4.987
	c-18.628,9.806-27.464,32.184-19.842,52.388c8.254,21.878,32.68,32.922,54.558,24.669c21.878-8.254,32.922-32.68,24.669-54.558
	c-6.41-16.992-22.577-27.449-39.728-27.405"/>
<path fill="none" stroke="#B6B6B6" stroke-width="2" stroke-miterlimit="10" d="M20.59,1194.885v-8.723
	c0-9.249,8.961-16.297,18.21-16.297h37.945c0,0,5.436,0.291,5.967,4.732l6.547,54.7"/>
<path fill="none" stroke="#B6B6B6" stroke-width="2" stroke-miterlimit="10" d="M164.13,1375.718l-4.171-11.599
	c-1.158-3.957,2.409-4.105,2.409-4.105h84.511c0.973-0.765-0.259-2.227-0.259-2.227c-0.193-0.555-0.297-1.151-0.297-1.771
	c0-2.983,2.418-5.402,5.402-5.402c2.983,0,5.402,2.418,5.402,5.402c0,0.746-0.151,1.456-0.424,2.102c0,0-0.787,1.896,0.186,1.896
	h19.401c5.853-4.448,4.682-18.904,4.682-18.904H24.482c-3.892,0-3.892-3.892-3.892-3.892v-142.334"/>
<g>
	<path fill="none" stroke="#B6B6B6" stroke-width="2" stroke-miterlimit="10" d="M1242.937,1838c0,0-3.813,0-8.122,0
		s-7.878-3.164-7.878-7.564v-6.636c0-4.4,0-11.6,0-16V1662"/>
</g>
<g>
	<path fill="none" stroke="#B6B6B6" stroke-width="2" stroke-miterlimit="10" d="M1242.937,1655c0,0-3.813,0-8.122,0
		s-7.878,3.894-7.878,8.294V1673"/>
</g>
<polyline fill="none" stroke="#B6B6B6" stroke-width="2" stroke-miterlimit="10" points="1242.65,1838.436 1351.767,1838.436 
	1361.634,1838.436 1361.634,1806.513 "/>
<line fill="none" stroke="#B6B6B6" stroke-width="2" stroke-miterlimit="10" x1="1361.634" y1="1806.513" x2="1361.634" y2="1769.367"/>
<g>
	<path fill="none" stroke="#B6B6B6" stroke-width="2" stroke-miterlimit="10" d="M1261.937,1780h-13.021
		c-2.75,0-4.979,2.732-4.979,5.482v1.957c0,2.75,2.229,4.561,4.979,4.561h16.021"/>
</g>
<g>
	<path fill="none" stroke="#B6B6B6" stroke-width="2" stroke-miterlimit="10" d="M1264.937,1757h-16.021
		c-2.75,0-4.979,2.672-4.979,5.422v1.103c0,2.75,2.229,5.475,4.979,5.475h13.021"/>
</g>
<g>
	<path fill="none" stroke="#B6B6B6" stroke-width="2" stroke-miterlimit="10" d="M1270.937,1803h-22.021
		c-2.75,0-4.979,2.636-4.979,5.386v1.103c0,2.75,2.229,4.51,4.979,4.51h21.021"/>
</g>
<g>
	<path fill="none" stroke="#B6B6B6" stroke-width="2" stroke-miterlimit="10" d="M1279.937,1734h-31.021
		c-2.75,0-4.979,2.612-4.979,5.362v1.103c0,2.75,2.229,4.535,4.979,4.535h21.021"/>
</g>
<path fill="none" stroke="#838383" stroke-width="2" stroke-miterlimit="10" d="M-106.312,608.155"/>
<path fill="none" stroke="#B6B6B6" stroke-width="2" stroke-miterlimit="10" d="M1256.405,200.378c-4.295,0-4.295,4.456-4.295,4.456
	v1.686"/>
<line fill="none" stroke="#B6B6B6" stroke-width="2" stroke-miterlimit="10" x1="36.088" y1="812.393" x2="40.6" y2="812.393"/>
<line fill="none" stroke="#B6B6B6" stroke-width="2" stroke-miterlimit="10" x1="138.984" y1="889.477" x2="286.501" y2="889.477"/>
<line fill="none" stroke="#B6B6B6" stroke-width="2" stroke-miterlimit="10" x1="1379.471" y1="413.209" x2="1379.471" y2="508.344"/>
<path fill="none" stroke="#B6B6B6" stroke-width="2" stroke-miterlimit="10" d="M6.134,1193.772v157.305
	c0,10.343,9.321,18.944,19.664,18.944h249.084c10.343,0,18.143-8.601,18.143-18.944v-175.108c0-10.343-7.8-17.225-18.143-17.225
	H104.544"/>
<path fill="none" stroke="#B6B6B6" stroke-width="2" stroke-miterlimit="10" d="M104.544,1158.745h-2.224
	c0,0-7.228-0.185-7.228,7.228v11.12"/>
<g>
	<path fill="none" stroke="#B6B6B6" stroke-width="2" stroke-miterlimit="10" d="M5.937,1197v-22.703
		c0-11,8.078-20.297,17.709-20.297s17.291,0,17.291,0"/>
</g>
<line fill="none" stroke="#B6B6B6" stroke-width="2" stroke-miterlimit="10" x1="41.161" y1="1154.297" x2="54.505" y2="1154.297"/>
<path fill="none" stroke="#B6B6B6" stroke-width="2" stroke-miterlimit="10" d="M1226.979,1833.648"/>
<g>
	<path fill="none" stroke="#B6B6B6" stroke-width="2" stroke-miterlimit="10" d="M1260.937,1639v-14.281
		c0-4.4,3.306-7.719,7.706-7.719h84.992c4.4,0,8.302,3.319,8.302,7.719V1696"/>
</g>
<g>
	<path fill="none" stroke="#B6B6B6" stroke-width="2" stroke-miterlimit="10" d="M1259.937,1654h81.026
		c2.75,0,4.911,2.181,4.803,4.929l-0.018,0.273c-0.108,2.748-2.447,4.799-5.197,4.799h-91.635c-2.75,0-4.979,2.578-4.979,5.328
		v1.376c0,2.75,2.229,5.296,4.979,5.296h91.635c2.75,0,5.385,1.954,5.385,4.704v1.376c0,2.75-2.635,4.92-5.385,4.92h-91.635
		c-2.75,0-4.979,2.33-4.979,5.08v1.376c0,2.75,2.229,4.544,4.979,4.544h91.635c2.75,0,5.385,2.706,5.385,5.456v1.376
		c0,2.75-2.635,5.168-5.385,5.168h-91.635c-2.75,0-4.979,2.082-4.979,4.832v1.376c0,2.75,2.229,4.792,4.979,4.792h91.635
		c2.75,0,5.385,2.458,5.385,5.208v1.98c0,2.75-2.635,4.812-5.385,4.812h-5.615"/>
</g>
<line fill="none" stroke="#B6B6B6" stroke-width="2" stroke-miterlimit="10" x1="1279.796" y1="1735.211" x2="1296.048" y2="1735.211"/>
<line fill="none" stroke="#B6B6B6" stroke-width="2" stroke-miterlimit="10" x1="1269.349" y1="1815.22" x2="1273.992" y2="1815.22"/>
<line fill="none" stroke="#B6B6B6" stroke-width="2" stroke-miterlimit="10" x1="111.216" y1="1377.806" x2="113.44" y2="1377.806"/>
<line fill="none" stroke="#B6B6B6" stroke-width="2" stroke-miterlimit="10" x1="1273.992" y1="1815.22" x2="1297.208" y2="1815.22"/>
<path fill="none" stroke="#B6B6B6" stroke-width="2" stroke-miterlimit="10" d="M1117.426,240.764c0,0,4.511-2.187,8.526-4.223
	l0.45-0.741l30.841-104.848l0.006,0.039c0.932-3.27,1.431-6.723,1.431-10.292c0-20.701-16.781-37.482-37.482-37.482"/>
<path fill="none" stroke="#B6B6B6" stroke-width="2" stroke-miterlimit="10" d="M1376.705,1538.775
	c0-20.701-16.781-37.482-37.482-37.482"/>
<line fill="none" stroke="#B6B6B6" stroke-width="2" stroke-miterlimit="10" x1="1376.937" y1="1622" x2="1376.937" y2="1535"/>
<line fill="none" stroke="#B6B6B6" stroke-width="2" stroke-miterlimit="10" x1="1361.937" y1="1696" x2="1361.937" y2="1711"/>
<line fill="none" stroke="#B6B6B6" stroke-width="2" stroke-miterlimit="10" x1="1260.937" y1="1638" x2="1260.937" y2="1653"/>
<line fill="none" stroke="#B6B6B6" stroke-width="2" stroke-miterlimit="10" x1="37.937" y1="1378" x2="110.937" y2="1378"/>
<line fill="none" stroke="#B6B6B6" stroke-width="2" stroke-miterlimit="10" x1="43.937" y1="1502" x2="1343.937" y2="1502"/>
<line fill="none" stroke="#B6B6B6" stroke-width="2" stroke-miterlimit="10" x1="1279.272" y1="1737.339" x2="1279.272" y2="1737.339"/>
<path fill="none" stroke="#B6B6B6" stroke-width="2" stroke-miterlimit="10" d="M1092.853,255.268"/>
<path fill="none" stroke="#B6B6B6" stroke-width="2" stroke-miterlimit="10" d="M1079.487,283.966
	c0.647-3.986,1.697-7.837,3.105-11.51"/>
<path fill="none" stroke="#B6B6B6" stroke-width="2" stroke-miterlimit="10" d="M1083.646,316.982
	c-1.824-4.155-3.181-8.563-4.002-13.156"/>
<path fill="none" stroke="#B6B6B6" stroke-width="2" stroke-miterlimit="10" d="M1176.562,249.857
	c1.897,1.708,3.682,3.538,5.343,5.478"/>
<g>
	<path fill="none" stroke="#B6B6B6" stroke-width="2" stroke-miterlimit="10" d="M1159.492,239.085
		c-2.331-0.957-4.684-1.719-7.154-2.373l-0.949,3.309c-1.566,5.272-1.839,9.983-0.623,10.454l0,0
		c19.666,5.445,34.11,23.478,34.11,44.877c0,25.711-20.84,46.558-46.551,46.558s-46.553-20.842-46.553-46.553
		c0-24.337,18.675-44.311,42.476-46.378l0,0c1.343,0.094,2.632,0.099,2.864,0.009s1.682-4.483,3.221-9.763l4.791-16.529
		c1.539-5.28,7.299-9.697,12.799-9.697h78.015"/>
</g>
<path fill="none" stroke="#B6B6B6" stroke-width="2" stroke-miterlimit="10" d="M1092.853,255.268c1.718-2,3.568-3.884,5.537-5.636"
	/>
<g>
	<path fill="none" stroke="#B6B6B6" stroke-width="2" stroke-miterlimit="10" d="M1159.147,240.347l5.724-6.262
		c1.113-1.218,3.151-1.471,4.529-0.563l8.522,5.619c1.378,0.908,1.97,2.891,1.316,4.406l-3.367,7.804"/>
</g>
<g>
	<path fill="none" stroke="#B6B6B6" stroke-width="2" stroke-miterlimit="10" d="M1080.666,303.886l-8.377-1.343
		c-1.629-0.261-2.96-1.825-2.958-3.475l0.014-10.208c0.002-1.65,1.334-3.234,2.959-3.52l8.37-1.473"/>
</g>
<g>
	<path fill="none" stroke="#B6B6B6" stroke-width="2" stroke-miterlimit="10" d="M1180.95,255.201l7.926-3.025
		c1.542-0.588,3.476,0.1,4.299,1.531l5.092,8.847c0.823,1.43,0.462,3.468-0.802,4.528l-4.214,3.533
		c-1.264,1.06-2.011,1.98-1.66,2.043c0.351,0.064,1.052,1.401,1.558,2.971l1.426,5.363c0.348,1.613,0.551,2.92,0.453,2.904
		c-0.099-0.016,1.15,0.205,2.775,0.491l5.416,0.953c1.625,0.286,2.957,1.87,2.959,3.52l0.014,10.208
		c0.002,1.65-1.329,3.214-2.958,3.475l-5.415,0.868c-1.629,0.261-2.918,0.468-2.865,0.46s-0.219,1.297-0.607,2.901l-2.198,7.275
		c-0.572,1.548-1.267,2.624-1.545,2.391c-0.278-0.233,0.53,0.445,1.794,1.505l4.214,3.533c1.264,1.06,1.625,3.098,0.802,4.528
		l-5.091,8.847c-0.823,1.43-2.758,2.119-4.299,1.531l-5.124-1.955c-1.542-0.588-2.772-1.058-2.734-1.044
		c0.038,0.014-0.663,0.767-1.559,1.672s-3.353,3.273-3.3,3.432s0.558,1.558,1.122,3.108l1.882,5.167
		c0.565,1.55-0.141,3.495-1.569,4.322l-8.833,5.116c-1.428,0.827-3.448,0.456-4.488-0.824l-3.459-4.255
		c-1.041-1.28-1.928-2.426-1.971-2.547c-0.043-0.121-1.361,0.202-2.929,0.716l-3.575,1.004c-1.605,0.382-2.933,0.761-2.952,0.843
		c-0.018,0.081-0.268,1.477-0.554,3.102l-0.953,5.416c-0.286,1.625-1.87,2.956-3.52,2.959l-10.208,0.014
		c-1.65,0.002-3.214-1.329-3.475-2.958l-0.868-5.415c-0.261-1.629-0.437-2.934-0.391-2.899s-1.24-0.198-2.859-0.518l-4.688-1.145
		c-1.582-0.468-2.936-0.863-3.008-0.876c-0.072-0.014-0.983,1.023-2.024,2.303l-3.459,4.255c-1.041,1.28-3.061,1.651-4.488,0.824
		l-8.833-5.116c-1.428-0.827-2.134-2.772-1.569-4.322l1.882-5.167c0.565-1.55,1.008-2.767,0.986-2.704
		c-0.023,0.063-0.963-0.687-2.089-1.666c-1.126-0.979-3.836-3.785-3.757-3.815c0.078-0.029-1.119,0.428-2.66,1.016l-5.124,1.955
		c-1.542,0.588-3.476-0.1-4.299-1.531l-5.092-8.847c-0.823-1.43-0.462-3.468,0.802-4.528l6.512-5.461"/>
</g>
<g>
	
		<line fill="none" stroke="#B6B6B6" stroke-width="2" stroke-miterlimit="10" x1="1082.487" y1="272.368" x2="1082.696" y2="272.543"/>
</g>
<g>
	<path fill="none" stroke="#B6B6B6" stroke-width="2" stroke-miterlimit="10" d="M1093.948,256.451l-7.926-3.025
		c-1.542-0.588-3.476,0.1-4.299,1.531l-5.092,8.847c-0.823,1.43-0.462,3.468,0.802,4.528l6.303,5.286"/>
</g>
<g>
	<path fill="none" stroke="#B6B6B6" stroke-width="2" stroke-miterlimit="10" d="M1099.003,250.541l-2.27-8.19
		c-0.441-1.59,0.417-3.473,1.905-4.185l9.209-4.403c1.489-0.712,3.473-0.183,4.409,1.176l4.816,6.985"/>
</g>
<path fill="none" stroke="#B6B6B6" stroke-width="2" stroke-miterlimit="10" d="M18.129,817.378l0.115,0.57
	c0,0.992,1.132,1.441,1.132,1.441c6.189,2.909,47.167,22.163,49.57,23.202c2.944,1.181,4.359,1.469,9.636,1.518h0.906
	c2.679,0.015,5.563-0.357,8.153-1.518l19.83-6.826"/>
<path fill="none" stroke="#B6B6B6" stroke-width="2" stroke-miterlimit="10" d="M161.607,723.36c0,2.036-1.853,3.687-4.138,3.687
	c-1.367,0-2.579-0.591-3.333-1.501"/>
<path fill="none" stroke="#B6B6B6" stroke-width="2" stroke-miterlimit="10" d="M178.128,723.701c0,1.567-1.853,2.838-4.138,2.838
	s-4.138-1.27-4.138-2.838"/>
<path fill="none" stroke="#B6B6B6" stroke-width="2" stroke-miterlimit="10" d="M178.228,723.701c0-1.567,1.853-2.838,4.138-2.838
	s4.138,1.27,4.138,2.838c0,0,0.593,1.383,0.97,1.682c0.823,0.653,1.966,1.155,3.333,1.155c2.285,0,4.138-1.27,4.138-2.838"/>
<path fill="none" stroke="#B6B6B6" stroke-width="2" stroke-miterlimit="10" d="M239.569,725.678c0.325,1.741,0,0,0.013,1.159
	l0.117,10.391l-15.532,11.753"/>
<path fill="none" stroke="#B6B6B6" stroke-width="2" stroke-miterlimit="10" d="M161.591,723.701c0-1.567,1.853-2.838,4.138-2.838
	c2.285,0,4.138,1.27,4.138,2.838"/>
<path fill="none" stroke="#B6B6B6" stroke-width="2" stroke-miterlimit="10" d="M211.466,723.701c0,1.567-1.853,2.838-4.138,2.838
	s-4.138-1.27-4.138-2.838"/>
<path fill="none" stroke="#B6B6B6" stroke-width="2" stroke-miterlimit="10" d="M211.566,723.701c0-1.567,1.853-2.838,4.138-2.838
	s4.138,1.27,4.138,2.838"/>
<path fill="none" stroke="#B6B6B6" stroke-width="2" stroke-miterlimit="10" d="M194.929,723.701c0-1.567,1.853-2.838,4.138-2.838
	s4.138,1.27,4.138,2.838"/>
<path fill="none" stroke="#B6B6B6" stroke-width="2" stroke-miterlimit="10" d="M228.135,723.701c0,1.567-1.853,2.838-4.138,2.838
	s-4.138-1.27-4.138-2.838"/>
<path fill="none" stroke="#B6B6B6" stroke-width="2" stroke-miterlimit="10" d="M244.952,723.36"/>
<path fill="none" stroke="#B6B6B6" stroke-width="2" stroke-miterlimit="10" d="M228.235,723.701c0-1.567,1.853-2.838,4.138-2.838
	s4.138,1.27,4.138,2.838c0,0,0.593,1.383,0.97,1.682c0.823,0.653,1.966,1.155,3.333,1.155"/>
<path fill="none" stroke="#838383" stroke-width="2" stroke-miterlimit="10" d="M1696.551,146.854
	c20.701,0,36.881-18.617,36.881-39.317"/>
<path fill="none" stroke="#B6B6B6" stroke-width="2" stroke-miterlimit="10" d="M1379.773,507.344
	c0,20.701-16.101,39.317-36.802,39.317H61.107l-0.337-0.043c-29.467,0-53.354,23.888-53.354,53.354l-0.033,0.25v26.726v68.526
	v104.12l-0.059,31.877v58.459c0,2.234,3.646,5.08,5.88,5.08h54.002h-3.384h12.799h-0.457v-38.226"/>
</svg>
